<svg width="322" height="322" viewBox="0 0 322 322" fill="none" stroke-width="4" xmlns="http://www.w3.org/2000/svg">
<path d="M0 286H286V321.75H0V286ZM286 0H0V178.75C0 218.254 31.9963 250.25 71.5 250.25H178.75C218.254 250.25 250.25 218.254 250.25 178.75V125.125H286C305.841 125.125 321.75 109.038 321.75 89.375V35.75C321.75 15.9088 305.841 0 286 0ZM214.5 178.75C214.5 198.413 198.413 214.5 178.75 214.5H71.5C51.8375 214.5 35.75 198.413 35.75 178.75V35.75H214.5V178.75ZM286 89.375H250.25V35.75H286V89.375Z" fill="#3f51b5"/>
</svg>
